<svg aria-hidden="true" focusable="false" viewBox="0 0 60 55" fill="none" xmlns="http://www.w3.org/2000/svg"><path d="M32.276 50.987c7.07-.447 19.564-7.174 23.341-18.14 2.732-7.927-.148-17.722-4.331-21.783C38.895-.963 12.203 5.76 7.54 10.453c-6.767 6.814-5.462 23.712 2.536 32.574 4.916 5.445 13.615 8.493 22.199 7.96Z" fill="#1A2432"></path><path d="M21.188 34.757v-1.186c0-1.698 1.154-4.747 8.076-4.747 6.923 0 8.076 3.048 8.076 4.747v1.186" stroke="#52D2DD" stroke-width="1.85" stroke-linecap="round" stroke-linejoin="round"></path><path d="M33.479 19.266c0 3.64-2.063 5.667-4.215 5.667-2.151 0-4.214-2.026-4.214-5.667 0-2.425 1.91-4.35 4.214-4.35 2.305 0 4.215 1.925 4.215 4.35Z" stroke="#52D2DD" stroke-width="1.85"></path></svg>