<svg aria-hidden="true" focusable="false" viewBox="0 0 60 55" fill="none" xmlns="http://www.w3.org/2000/svg"><path d="M32.256 50.987c7.071-.447 19.565-7.174 23.341-18.14 2.732-7.927-.147-17.722-4.331-21.783-12.39-12.026-39.083-5.303-43.745-.611-6.767 6.815-5.462 23.712 2.536 32.574 4.917 5.445 13.616 8.493 22.199 7.96Z" fill="#1A2432"></path><path d="M22.56 34.757v-1.14c0-1.63 1.105-4.557 7.733-4.557 6.627 0 7.731 2.928 7.731 4.558v1.14" stroke="#F4CA70" stroke-width="1.849" stroke-linecap="round" stroke-linejoin="round"></path><path d="M34.251 21.103c0 3.493-1.956 5.405-3.958 5.405-2.003 0-3.959-1.912-3.959-5.405 0-2.319 1.804-4.14 3.959-4.14 2.154 0 3.958 1.822 3.958 4.14Z" stroke="#F4CA70" stroke-width="1.849"></path><path d="M46.41 31.91v-.768c0-1.098-.745-3.071-5.21-3.071-3.22 0-4.505 1.024-4.972 2.008" stroke="#F4CA70" stroke-width="1.849" stroke-linecap="round" stroke-linejoin="round"></path><path d="M43.565 22.015c0 2.254-1.243 3.34-2.366 3.34s-2.366-1.086-2.366-3.34c0-1.406 1.09-2.488 2.366-2.488s2.366 1.082 2.366 2.488Z" stroke="#F4CA70" stroke-width="1.849"></path><path d="M13.608 31.91v-.768c0-1.098.744-3.071 5.21-3.071 3.668 0 4.826 1.33 5.123 2.415" stroke="#F4CA70" stroke-width="1.849" stroke-linecap="round" stroke-linejoin="round"></path><path d="M21.185 22.015c0 2.254-1.244 3.34-2.366 3.34-1.123 0-2.367-1.086-2.367-3.34 0-1.406 1.091-2.488 2.366-2.488 1.276 0 2.367 1.082 2.367 2.488Z" stroke="#F4CA70" stroke-width="1.849"></path></svg>