<svg width="45" height="51" fill="none" xmlns="http://www.w3.org/2000/svg"><path d="M4.388 44.108c2.422 3.885 6.023 6.551 10.941 6.683 4.397.118 8.561-2.202 11.671-5.296 1.456-1.448 2.76-3.126 3.345-5.093.525-1.765.44-3.646.623-5.478a18.753 18.753 0 0 1 4.132-9.96c1.842-2.246 4.183-4.034 6.11-6.206 1.928-2.173 3.478-4.942 3.209-7.835-.194-2.08-1.32-3.99-2.783-5.486-3.53-3.61-8.938-4.95-13.957-4.425-5.02.527-9.716 2.717-14.028 5.323C9.488 8.85 5.458 11.92 3.145 16.19-.587 23.079-.572 36.15 4.388 44.108Z" fill="#FEC96E"/></svg>